<?xml version="1.0" standalone="no"?>
<!DOCTYPE svg PUBLIC "-//W3C//DTD SVG 20010904//EN"
 "http://www.w3.org/TR/2001/REC-SVG-20010904/DTD/svg10.dtd">
<svg version="1.0" xmlns="http://www.w3.org/2000/svg"
 width="65.000000pt" height="70.000000pt" viewBox="0 0 65.000000 70.000000"
 preserveAspectRatio="xMidYMid meet">

<g transform="translate(0.000000,70.000000) scale(0.100000,-0.100000)"
fill="#000000" stroke="none">
<path d="M280 640 c0 -11 4 -20 9 -20 5 0 11 9 14 20 3 13 0 20 -9 20 -8 0
-14 -9 -14 -20z"/>
<path d="M330 650 c0 -6 5 -8 10 -5 6 3 10 2 10 -4 0 -5 -8 -12 -17 -14 -13
-3 -12 -5 5 -6 17 -1 23 4 20 16 -3 19 -28 31 -28 13z"/>
<path d="M222 637 c-10 -11 -9 -17 3 -27 24 -20 45 4 24 26 -14 13 -17 13 -27
1z m23 -6 c3 -5 1 -12 -5 -16 -5 -3 -10 1 -10 9 0 18 6 21 15 7z"/>
<path d="M371 633 c-1 -16 5 -23 17 -23 10 0 13 3 6 8 -6 4 -14 14 -17 22 -4
10 -6 8 -6 -7z"/>
<path d="M175 620 c-3 -5 -1 -18 4 -27 6 -11 11 -13 11 -5 0 7 5 10 10 7 12
-7 12 -3 4 19 -7 18 -20 21 -29 6z"/>
<path d="M415 620 c-8 -13 3 -30 18 -30 8 0 7 3 -2 9 -7 5 -10 14 -7 20 4 6 5
11 2 11 -3 0 -8 -4 -11 -10z"/>
<path d="M461 596 c-9 -10 -8 -15 3 -19 8 -3 17 1 20 8 7 20 -9 28 -23 11z"/>
<path d="M140 591 c0 -5 7 -14 15 -21 16 -14 18 -10 9 14 -6 17 -24 22 -24 7z"/>
<path d="M257 580 c-69 -21 -145 -118 -134 -172 4 -22 4 -22 6 2 1 14 8 36 16
50 13 23 14 16 14 -80 0 -83 -2 -101 -11 -85 -6 10 -15 33 -20 50 -7 26 -7 25
-3 -10 14 -123 163 -199 283 -145 80 36 122 104 122 195 0 139 -136 236 -273
195z m63 -155 l0 -155 -52 0 -53 0 5 122 5 123 35 6 c34 6 35 6 5 8 -17 0 -41
-6 -53 -15 -28 -19 -41 -11 -21 12 16 20 86 53 112 54 15 0 17 -14 17 -155z
m110 75 c6 -12 10 -66 9 -125 l-1 -105 -55 0 -54 0 3 63 3 62 32 -3 c18 -2 41
2 50 8 15 9 12 10 -17 8 -19 -1 -40 1 -47 5 -6 4 -14 1 -16 -5 -3 -7 -6 12 -6
43 -1 31 2 59 6 62 3 4 23 7 44 7 28 0 41 -5 49 -20z m-110 -286 c0 -35 -1
-35 -32 -29 -31 6 -108 49 -108 60 0 3 32 5 70 5 l70 0 0 -36z"/>
<path d="M250 410 c0 -17 27 -23 47 -10 15 10 14 10 -10 5 -19 -4 -26 -2 -22
5 3 5 1 10 -4 10 -6 0 -11 -5 -11 -10z"/>
<path d="M496 564 c-5 -14 -4 -15 9 -4 17 14 19 20 6 20 -5 0 -12 -7 -15 -16z"/>
<path d="M120 566 c0 -2 7 -9 15 -16 9 -7 15 -8 15 -2 0 5 -7 12 -15 16 -8 3
-15 4 -15 2z"/>
<path d="M100 556 c0 -2 8 -10 18 -17 15 -13 16 -12 3 4 -13 16 -21 21 -21 13z"/>
<path d="M505 540 c-3 -5 -2 -10 4 -10 5 0 13 5 16 10 3 6 2 10 -4 10 -5 0
-13 -4 -16 -10z"/>
<path d="M530 525 c-7 -9 -10 -18 -6 -22 3 -3 6 -1 6 5 0 6 6 10 13 8 6 -1 9
-1 4 1 -4 3 -5 9 -1 14 9 15 -2 10 -16 -6z"/>
<path d="M81 524 c-1 -18 26 -37 34 -24 3 5 0 10 -9 10 -8 0 -17 6 -19 13 -4
7 -6 8 -6 1z"/>
<path d="M541 486 c-8 -10 -8 -16 2 -24 17 -14 42 2 34 22 -8 20 -21 20 -36 2z
m29 -4 c0 -13 -12 -22 -22 -16 -10 6 -1 24 13 24 5 0 9 -4 9 -8z"/>
<path d="M60 476 c0 -17 27 -29 36 -15 3 6 3 13 0 16 -3 4 -6 1 -6 -6 0 -7 -5
-9 -10 -6 -6 4 -8 11 -5 16 4 5 1 9 -4 9 -6 0 -11 -6 -11 -14z"/>
<path d="M51 414 c0 -11 3 -14 6 -6 3 7 2 16 -1 19 -3 4 -6 -2 -5 -13z"/>
<path d="M571 414 c0 -11 3 -14 6 -6 3 7 2 16 -1 19 -3 4 -6 -2 -5 -13z"/>
<path d="M595 390 c-4 -6 -14 -9 -22 -5 -13 5 -14 3 -3 -10 12 -14 15 -14 29
-1 8 9 12 18 9 21 -3 4 -9 1 -13 -5z"/>
<path d="M33 375 c2 -5 10 -10 17 -10 7 0 15 5 17 10 2 6 -6 11 -17 11 -11 0
-19 -5 -17 -11z"/>
<path d="M20 353 c0 -6 8 -17 18 -27 18 -15 19 -15 31 11 11 23 10 25 -3 13
-13 -10 -19 -10 -31 0 -8 7 -15 8 -15 3z"/>
<path d="M560 340 c13 -24 23 -25 41 -3 12 15 12 16 -3 10 -10 -3 -20 -2 -23
3 -12 20 -26 10 -15 -10z"/>
<path d="M74 306 c-4 -12 -13 -15 -28 -10 -18 6 -19 5 -7 -10 18 -22 38 -20
46 5 8 25 -2 39 -11 15z"/>
<path d="M547 302 c8 -31 22 -37 41 -17 16 17 16 17 -2 11 -12 -4 -23 0 -32
11 -12 16 -13 16 -7 -5z"/>
<path d="M94 266 c-3 -9 -16 -16 -28 -16 -17 0 -18 -2 -6 -10 24 -15 38 -12
45 11 8 25 -2 39 -11 15z"/>
<path d="M531 258 c-1 -21 4 -28 18 -28 11 0 23 5 26 10 3 6 -3 10 -14 10 -11
0 -22 8 -24 18 -3 10 -5 6 -6 -10z"/>
<path d="M120 219 c0 -16 -5 -20 -20 -16 -11 3 -18 1 -14 -4 3 -5 14 -9 25 -9
14 0 19 7 19 25 0 14 -2 25 -5 25 -3 0 -5 -10 -5 -21z"/>
<path d="M501 218 c-1 -24 3 -28 27 -27 22 1 23 2 5 6 -13 2 -24 13 -26 26 -4
18 -5 17 -6 -5z"/>
<path d="M157 188 c4 -22 1 -27 -18 -31 -18 -4 -17 -5 5 -4 35 2 42 15 22 42
-13 19 -14 18 -9 -7z"/>
<path d="M461 188 c-11 -30 -5 -38 27 -37 25 2 25 2 4 6 -19 4 -23 9 -18 29 8
30 -2 32 -13 2z"/>
<path d="M200 172 c10 -20 8 -26 -7 -38 -10 -7 -13 -14 -7 -14 5 0 18 6 28 13
17 12 16 14 -4 37 -21 25 -21 25 -10 2z"/>
<path d="M416 169 c-17 -26 -13 -33 24 -44 l25 -6 -23 18 c-18 14 -20 21 -10
31 6 6 9 14 6 17 -3 4 -13 -4 -22 -16z"/>
<path d="M245 153 c16 -16 16 -17 -1 -30 -22 -16 -1 -17 25 -1 19 12 19 12 -1
30 -27 23 -45 24 -23 1z"/>
<path d="M366 151 c-17 -19 -17 -20 4 -31 12 -6 24 -9 27 -6 3 3 -2 8 -11 12
-16 6 -16 8 0 25 9 11 13 19 7 19 -5 0 -18 -9 -27 -19z"/>
<path d="M120 85 c-7 -9 -11 -17 -9 -20 3 -2 10 5 17 15 14 24 10 26 -8 5z"/>
<path d="M276 82 c-2 -4 -26 -6 -52 -5 -26 2 -44 0 -40 -4 10 -11 116 -14 116
-4 0 13 -18 23 -24 13z"/>
<path d="M140 68 c0 -10 17 -10 24 0 3 5 -1 9 -9 9 -8 0 -15 -4 -15 -9z"/>
<path d="M320 71 c0 -10 26 -9 36 2 4 4 -2 7 -14 7 -12 0 -22 -4 -22 -9z"/>
<path d="M380 70 c0 -3 32 -6 70 -6 39 0 70 4 70 9 0 4 -31 7 -70 6 -38 -1
-70 -5 -70 -9z"/>
</g>
</svg>
